<svg width="96" height="96" xmlns="http://www.w3.org/2000/svg" xmlns:xlink="http://www.w3.org/1999/xlink" xml:space="preserve" overflow="hidden"><g transform="translate(-85 -55)"><path d="M108 75 119 75 119 81 147 81 147 75 158 75 158 137 108 137 108 75ZM133.1 67C134.7 67 136 68.4 136 70 136 71.7 134.7 73 133 73 131.3 73 130 71.7 130 70 130 68.3 131.3 67 133.1 67ZM102 73 102 139C102 141.2 103.8 143 106 143L160 143C162.2 143 164 141.2 164 139L164 73C164 70.8 162.2 69 160 69L143 69 143 67C143 64.8 141.2 63 139 63L127 63C124.8 63 123 64.8 123 67L123 69 106 69C103.8 69 102 70.8 102 73Z" fill="#00B050"/><path d="M114 89 131 89 131 93 114 93Z" fill="#00B050"/><path d="M114 101 131 101 131 105 114 105Z" fill="#00B050"/><path d="M114 113 131 113 131 117 114 117Z" fill="#00B050"/><path d="M114 125 131 125 131 129 114 129Z" fill="#00B050"/><path d="M137.9 90.8 140 88.7 142.6 91.3 149.2 84.7 151.3 86.8 142.6 95.5Z" fill="#00B050"/><path d="M137.9 102.8 140 100.7 142.6 103.3 149.2 96.7 151.3 98.8 142.6 107.5Z" fill="#00B050"/><path d="M137.9 114.8 140 112.7 142.6 115.3 149.2 108.7 151.3 110.8 142.6 119.5Z" fill="#00B050"/><path d="M137.9 126.8 140 124.7 142.6 127.3 149.2 120.7 151.3 122.8 142.6 131.5Z" fill="#00B050"/></g></svg>