<svg width="96" height="96" xmlns="http://www.w3.org/2000/svg" xmlns:xlink="http://www.w3.org/1999/xlink" xml:space="preserve" overflow="hidden"><g transform="translate(-458 -219)"><path d="M512.764 274.3C513.89 275.394 513.916 277.194 512.822 278.32 512.803 278.34 512.784 278.359 512.764 278.378L507.882 279.986 507.021 279.125 508.629 274.243C509.795 273.138 511.629 273.163 512.764 274.3ZM534.824 244.831 506.624 273.094 503 284.007 513.97 280.388 542.176 252.188Z" fill="#003A5C"/><path d="M548.318 242.767 544.24 238.689C543.356 237.785 541.907 237.768 541.003 238.652 540.991 238.664 540.978 238.676 540.966 238.689L536.945 242.71 544.24 250 548.26 245.98C549.162 245.186 549.25 243.812 548.456 242.91 548.412 242.861 548.366 242.813 548.318 242.767Z" fill="#003A5C"/><path d="M484 284 499.842 284 501.168 280 484 280 484 284Z" fill="#003A5C"/><path d="M484 260 515.448 260 519.44 256 484 256 484 260Z" fill="#003A5C"/><path d="M528 270.6 528 301 478 301 478 239 489 239 489 245 517 245 517 239 528 239 528 247.422 532.7 242.71 532.7 242.71 532.871 242.539 534 241.41 534 237C534 234.791 532.209 233 530 233L513 233 513 231C513 228.791 511.209 227 509 227L497 227C494.791 227 493 228.791 493 231L493 233 476 233C473.791 233 472 234.791 472 237L472 303C472 305.209 473.791 307 476 307L530 307C532.209 307 534 305.209 534 303L534 264.6ZM500.864 231.864C501.429 231.298 502.2 230.986 503 231 504.657 231 506 232.343 506 234 506 235.657 504.657 237 503 237 501.343 237 500 235.657 500 234 499.986 233.2 500.298 232.429 500.864 231.864Z" fill="#003A5C"/><path d="M484 272 503.448 272 507.44 268 484 268 484 272Z" fill="#003A5C"/></g></svg>