<svg width="96" height="96" xmlns="http://www.w3.org/2000/svg" xmlns:xlink="http://www.w3.org/1999/xlink" xml:space="preserve" overflow="hidden"><g transform="translate(-609 -85)"><path d="M697.123 118.517 693.65 117.082 693.65 117.077 692.4 116.561C693.08 114.957 693.771 113.307 694.472 111.611L695.237 109.762 640 86.923 639.235 88.772C628.923 113.714 621 128.385 614.286 134.94L612.116 137.06 620.8 140.651 619.627 143.489 619.606 143.48 618.477 146.217 621.863 155.172 679.491 179 701 126.976ZM619.123 135.628C625.623 128.128 632.863 114.452 642.168 92.147L690.011 111.929C680.53 134.651 673.086 148.536 666.742 155.317ZM624.5 142.179 667.682 160.034 668.624 159.112C674.986 152.896 681.944 140.748 690.824 120.238L692.65 120.993 674.05 165.993 623.326 145.017ZM677.324 173.779 624.992 152.137 624.049 149.644 676.217 171.214 695.5 124.576 696.638 127.058Z" fill="#C04F15"/></g></svg>