<svg width="96" height="96" xmlns="http://www.w3.org/2000/svg" xmlns:xlink="http://www.w3.org/1999/xlink" xml:space="preserve" overflow="hidden"><g transform="translate(-640 -264)"><path d="M716 296 716 304 708 304 708 296 716 296ZM660 332 668 332 668 340 660 340 660 332ZM680 296 680 304 672 304 672 296 680 296ZM692 296 692 304 684 304 684 296 692 296ZM704 316 696 316 696 308 704 308 704 316ZM708 316 708 308 716 308 716 316 708 316ZM708 328 708 320 716 320 716 328 708 328ZM684 332 692 332 692 340 684 340 684 332ZM680 332 680 340 672 340 672 332 680 332ZM672 320 680 320 680 328 672 328 672 320ZM668 320 668 328 660 328 660 320 668 320ZM668 308 668 316 660 316 660 308 668 308ZM680 316 672 316 672 308 680 308 680 316ZM684 316 684 308 692 308 692 316 684 316ZM692 328 684 328 684 320 692 320 692 328ZM696 328 696 320 704 320 704 328 696 328ZM704 296 704 304 696 304 696 296 704 296ZM654 290 654 346 722 346 722 290 654 290Z" fill="#003A5C"/><path d="M654 278 722 278 722 286 654 286Z" fill="#003A5C"/></g></svg>