<svg width="96" height="96" xmlns="http://www.w3.org/2000/svg" xmlns:xlink="http://www.w3.org/1999/xlink" xml:space="preserve" overflow="hidden"><g transform="translate(-243 -55)"><path d="M333.6 135 294.5 67C293 64.3 289.1 64.3 287.6 67L248.4 135C246.9 137.7 248.8 141 251.9 141L291 141 330.1 141C333.2 141 335.1 137.7 333.6 135ZM288 83 294 83 294 118 288 118 288 83ZM291 132C288.2 132 286 129.8 286 127 286 124.2 288.2 122 291 122 293.8 122 296 124.2 296 127 296 129.8 293.8 132 291 132Z" fill="#FFC000"/></g></svg>