<svg width="96" height="96" xmlns="http://www.w3.org/2000/svg" xmlns:xlink="http://www.w3.org/1999/xlink" xml:space="preserve" overflow="hidden"><g transform="translate(-281 -264)"><path d="M337 314.5C337 316.7 335.2 318.5 333 318.5L329 318.5C326.8 318.5 325 316.7 325 314.5L325 312.5 291 312.5 291 340.5C291 342.7 292.8 344.5 295 344.5L367 344.5C369.2 344.5 371 342.7 371 340.5L371 312.5 337 312.5 337 314.5Z" fill="#003A5C"/><path d="M367 288.5 347 288.5 347 282C347 278.1 343.9 275 340 275L322 275C318.1 275 315 278.1 315 282L315 288.5 295 288.5C292.8 288.5 291 290.3 291 292.5L291 308.5 325 308.5 325 306.5 337 306.5 337 308.5 371 308.5 371 292.5C371 290.3 369.2 288.5 367 288.5M321 288.5 321 282C321 281.4 321.4 281 322 281L340 281C340.6 281 341 281.4 341 282L341 288.5 321 288.5Z" fill="#003A5C"/></g></svg>