<svg width="96" height="96" xmlns="http://www.w3.org/2000/svg" xmlns:xlink="http://www.w3.org/1999/xlink" xml:space="preserve" overflow="hidden"><g transform="translate(-117 -245)"><path d="M181 275C181 283.837 173.837 291 165 291 156.163 291 149 283.837 149 275 149 266.163 156.163 259 165 259 173.837 259 181 266.163 181 275Z" fill="#003A5C"/><path d="M197 327 197 311C197 308.6 195.8 306.2 193.8 304.6 189.4 301 183.8 298.6 178.2 297 174.2 295.8 169.8 295 165 295 160.6 295 156.2 295.8 151.8 297 146.2 298.6 140.6 301.4 136.2 304.6 134.2 306.2 133 308.6 133 311L133 327 197 327Z" fill="#003A5C"/></g></svg>